<svg width="138" height="130" viewBox="0 0 138 130" fill="none" xmlns="http://www.w3.org/2000/svg">
<ellipse cx="69" cy="65" rx="69" ry="65" fill="#1B2141"/>
<path d="M16.71 72.1976C15.87 72.1976 15.06 72.1476 14.28 72.0476C13.5 71.9476 12.74 71.7676 12 71.5076V66.1676C12.48 66.3676 13.01 66.5176 13.59 66.6176C14.19 66.6976 14.79 66.7376 15.39 66.7376C16.39 66.7376 17.09 66.5376 17.49 66.1376C17.91 65.7376 18.12 65.0676 18.12 64.1276V52.5776H24.57V65.4476C24.57 67.6276 23.9 69.2976 22.56 70.4576C21.22 71.6176 19.27 72.1976 16.71 72.1976ZM26.823 71.8976V57.6776H32.793L32.943 58.6976C33.523 58.3176 34.183 58.0076 34.923 57.7676C35.683 57.5076 36.523 57.3776 37.443 57.3776C38.323 57.3776 39.013 57.5076 39.513 57.7676C40.013 58.0076 40.423 58.3576 40.743 58.8176C41.383 58.3776 42.103 58.0276 42.903 57.7676C43.703 57.5076 44.633 57.3776 45.693 57.3776C47.373 57.3776 48.593 57.8276 49.353 58.7276C50.133 59.6076 50.523 60.9376 50.523 62.7176V71.8976H44.193V63.4676C44.193 63.0076 44.093 62.6776 43.893 62.4776C43.713 62.2576 43.393 62.1476 42.933 62.1476C42.373 62.1476 41.913 62.3476 41.553 62.7476C41.573 63.0276 41.583 63.2976 41.583 63.5576C41.583 63.8176 41.583 64.0976 41.583 64.3976V71.8976H35.613V63.3476C35.613 62.9276 35.533 62.6276 35.373 62.4476C35.233 62.2476 34.963 62.1476 34.563 62.1476C34.283 62.1476 34.013 62.2276 33.753 62.3876C33.493 62.5276 33.253 62.7076 33.033 62.9276V71.8976H26.823ZM52.7801 71.8976V57.6776H59.0501L59.2001 58.6676C59.7401 58.3476 60.4501 58.0576 61.3301 57.7976C62.2101 57.5376 63.1101 57.3976 64.0301 57.3776V62.1476C63.5301 62.1676 62.9701 62.2176 62.3501 62.2976C61.7501 62.3776 61.1701 62.4776 60.6101 62.5976C60.0701 62.6976 59.6101 62.8276 59.2301 62.9876V71.8976H52.7801ZM64.9242 71.8976V67.3376H69.9342V71.8976H64.9242Z" fill="white"/>
<path d="M71.7352 71.8976V52.5776H80.6452C82.6652 52.5776 84.3952 52.9076 85.8352 53.5676C87.2752 54.2076 88.3852 55.2476 89.1652 56.6876C89.9452 58.1076 90.3352 59.9976 90.3352 62.3576C90.3352 65.6976 89.4852 68.1276 87.7852 69.6476C86.0852 71.1476 83.7052 71.8976 80.6452 71.8976H71.7352ZM78.1852 66.9776H79.8652C80.6852 66.9776 81.3852 66.8576 81.9652 66.6176C82.5452 66.3776 82.9852 65.9276 83.2852 65.2676C83.6052 64.6076 83.7652 63.6376 83.7652 62.3576C83.7652 61.0776 83.6252 60.1076 83.3452 59.4476C83.0652 58.7876 82.6352 58.3376 82.0552 58.0976C81.4752 57.8376 80.7452 57.7076 79.8652 57.7076H78.1852V66.9776ZM100.166 72.1976C98.5058 72.1976 97.0158 71.9276 95.6958 71.3876C94.3958 70.8276 93.3758 69.9976 92.6358 68.8976C91.8958 67.7976 91.5258 66.4476 91.5258 64.8476C91.5258 62.5876 92.1758 60.7776 93.4758 59.4176C94.7958 58.0576 96.7658 57.3776 99.3858 57.3776C101.766 57.3776 103.646 57.9776 105.026 59.1776C106.406 60.3576 107.096 62.0176 107.096 64.1576V66.6176H97.4358C97.9558 67.7176 99.4158 68.2676 101.816 68.2676C102.696 68.2676 103.546 68.1976 104.366 68.0576C105.186 67.8976 105.846 67.7176 106.346 67.5176V71.1776C104.926 71.8576 102.866 72.1976 100.166 72.1976ZM97.4358 63.2576H101.576V62.8676C101.576 62.4476 101.426 62.0876 101.126 61.7876C100.846 61.4876 100.336 61.3376 99.5958 61.3376C98.7958 61.3376 98.2358 61.5076 97.9158 61.8476C97.5958 62.1876 97.4358 62.6576 97.4358 63.2576ZM112.253 71.8976L106.643 57.6776H113.363L115.613 65.1176L117.893 57.6776H124.613L119.003 71.8976H112.253Z" fill="#00B2FF"/>
</svg>
